<svg width="1200" height="630" viewBox="0 0 1200 630" xmlns="http://www.w3.org/2000/svg">
  <rect width="1200" height="630" fill="#fafafa"/>
  <rect x="40" y="40" width="1120" height="550" rx="20" fill="#ffffff" stroke="#e4e4e7" stroke-width="1"/>
  <rect x="40" y="40" width="1120" height="4" rx="2" fill="#0052FF"/>
  <!-- Logo mark -->
  <rect x="80" y="100" width="52" height="52" rx="12" fill="#0e0e0e"/>
  <polygon points="106,113 119,120 119,134 106,141 93,134 93,120" fill="none" stroke="white" stroke-width="1.5"/>
  <!-- Brand -->
  <text x="148" y="133" font-family="-apple-system,sans-serif" font-size="28" font-weight="700" fill="#0e0e0e">B20 <tspan fill="#0052FF">Forge</tspan></text>
  <!-- Live badge -->
  <rect x="80" y="175" width="160" height="28" rx="14" fill="#eef2ff"/>
  <circle cx="100" cy="189" r="4" fill="#0052FF"/>
  <text x="112" y="194" font-family="-apple-system,sans-serif" font-size="11" font-weight="600" fill="#0052FF">LIVE · BASE MAINNET</text>
  <!-- Headline -->
  <text x="80" y="290" font-family="-apple-system,sans-serif" font-size="68" font-weight="800" fill="#0e0e0e" letter-spacing="-2">Launch token B20</text>
  <text x="80" y="368" font-family="-apple-system,sans-serif" font-size="68" font-weight="800" fill="#0052FF" letter-spacing="-2">di Base Mainnet</text>
  <!-- Subtext -->
  <text x="80" y="420" font-family="-apple-system,sans-serif" font-size="22" fill="#71717a">Tanpa coding · biaya ~$0.01 · langsung live</text>
  <!-- Stats -->
  <rect x="80" y="460" width="210" height="80" rx="14" fill="#f4f4f5" stroke="#e4e4e7" stroke-width="1"/>
  <text x="185" y="498" font-family="-apple-system,sans-serif" font-size="26" font-weight="800" fill="#0e0e0e" text-anchor="middle">~$0.01</text>
  <text x="185" y="522" font-family="-apple-system,sans-serif" font-size="12" fill="#71717a" text-anchor="middle">Biaya deploy</text>
  <rect x="310" y="460" width="210" height="80" rx="14" fill="#f4f4f5" stroke="#e4e4e7" stroke-width="1"/>
  <text x="415" y="498" font-family="-apple-system,sans-serif" font-size="26" font-weight="800" fill="#0e0e0e" text-anchor="middle">&lt;30 detik</text>
  <text x="415" y="522" font-family="-apple-system,sans-serif" font-size="12" fill="#71717a" text-anchor="middle">Waktu deploy</text>
  <rect x="540" y="460" width="210" height="80" rx="14" fill="#f4f4f5" stroke="#e4e4e7" stroke-width="1"/>
  <text x="645" y="498" font-family="-apple-system,sans-serif" font-size="26" font-weight="800" fill="#0e0e0e" text-anchor="middle">ERC-20</text>
  <text x="645" y="522" font-family="-apple-system,sans-serif" font-size="12" fill="#71717a" text-anchor="middle">Kompatibel</text>
  <rect x="870" y="460" width="250" height="80" rx="14" fill="#0052FF"/>
  <text x="995" y="498" font-family="-apple-system,sans-serif" font-size="22" font-weight="700" fill="white" text-anchor="middle">⬡ Base Mainnet</text>
  <text x="995" y="522" font-family="-apple-system,sans-serif" font-size="12" fill="rgba(255,255,255,0.7)" text-anchor="middle">b20forge.vercel.app</text>
</svg>
